<?xml version="1.0" encoding="UTF-8"?>
<svg id="Layer_1" xmlns="http://www.w3.org/2000/svg" version="1.1" viewBox="0 0 210.78 75.6">
  <!-- Generator: Adobe Illustrator 29.8.2, SVG Export Plug-In . SVG Version: 2.1.1 Build 3)  -->
  <defs>
    <style>
      .st0 {
        fill: #fff;
      }
    </style>
  </defs>
  <path class="st0" d="M32.37,23.65l14.48,46.08h5.42l1.57-7.18-10.94-34.76C37.58,10.8,27.71,5.87,18.64,5.87S2.91,10.23,2.91,15.75c0,3.48,2.35,5.86,5.39,5.86s5.46-2.38,5.46-5.39c0-1.38-.47-2.51-1.31-3.76-.98-1.51-.25-3.95,4.54-3.95,8.69,0,12.76,6.64,15.39,15.14h0ZM50.15,69.73h3.29l13.17-34.55h-3.29l-13.17,34.55ZM55.22,26.75l15.99,42.98h5.41l1.57-7.18-13.69-35.8c-.66-1.72.06-2.44,1.19-2.44.13,0,.34-.06.34-.32,0-.28-.21-.34-.34-.34h-13.95c-.13,0-.34.06-.34.34,0,.25.21.32.34.32,1.13,0,2.89.72,3.48,2.44h0ZM88.01,26.81l-13.5,42.91h3.29l13.5-42.91c.54-1.78,2.23-2.51,3.36-2.51.13,0,.32-.06.32-.32,0-.28-.19-.34-.32-.34h-8.03c-.13,0-.34.06-.34.34,0,.25.21.32.34.32,1.11,0,1.91.72,1.38,2.51h0ZM138.35,69.73h2.44c.13,0,.34-.06.34-.32,0-.28-.21-.34-.34-.34-1.12,0-2.38-.79-2.38-2.64V26.94c0-1.85,1.26-2.63,2.38-2.63.13,0,.34-.06.34-.32,0-.28-.21-.34-.34-.34h-13.95c-.13,0-.34.06-.34.34,0,.25.21.32.34.32,1.13,0,2.35.78,2.35,2.63v39.49c0,1.85-1.23,2.64-2.35,2.64-.13,0-.34.06-.34.34,0,.25.21.32.34.32h11.51ZM112.02,69.73h2.45c.13,0,.34-.06.34-.32,0-.28-.21-.34-.34-.34-1.13,0-2.38-.79-2.38-2.64V26.94c0-1.85,1.25-2.63,2.38-2.63.13,0,.34-.06.34-.32,0-.28-.21-.34-.34-.34h-13.95c-.13,0-.34.06-.34.34,0,.25.21.32.34.32,1.13,0,2.36.78,2.36,2.63v39.49c0,1.85-1.23,2.64-2.36,2.64-.13,0-.34.06-.34.34,0,.25.21.32.34.32h11.51ZM109.79,47.34h21.85v-2.63h-21.85v2.63ZM159.56,69.73h2.42c.13,0,.34-.06.34-.32,0-.28-.21-.34-.34-.34-1.11,0-2.36-.79-2.36-2.64V26.94c0-1.85,1.26-2.63,2.36-2.63.13,0,.34-.06.34-.32,0-.28-.21-.34-.34-.34h-13.95c-.13,0-.32.06-.32.34,0,.25.19.32.32.32,1.13,0,2.38.78,2.38,2.63v39.49c0,1.85-1.25,2.64-2.38,2.64-.13,0-.32.06-.32.34,0,.25.19.32.32.32h11.53ZM193.58,30.42l-19.03,25.95h3.29l18.31-24.95c2.91-3.95,6.98-7.12,8.09-7.12.15,0,.34-.06.34-.32,0-.28-.19-.34-.34-.34h-12.04c-.13,0-.32.06-.32.34,0,.25.19.32.32.32,2.44,0,3.29,3.48,1.38,6.11h0ZM180.75,69.73h2.42c.15,0,.34-.06.34-.32,0-.28-.19-.34-.34-.34-1.11,0-2.36-.79-2.36-2.64V26.94c0-1.85,1.26-2.63,2.36-2.63.15,0,.34-.06.34-.32,0-.28-.19-.34-.34-.34h-13.95c-.13,0-.32.06-.32.34,0,.25.19.32.32.32,1.12,0,2.38.78,2.38,2.63v39.49c0,1.85-1.25,2.64-2.38,2.64-.13,0-.32.06-.32.34,0,.25.19.32.32.32h11.52ZM205.11,69.73h2.42c.15,0,.34-.06.34-.32,0-.28-.19-.34-.34-.34-1.11,0-3.02-.66-3.87-2.23l-13.97-26.92h-1.57l-4.42,6.18,10.75,20.75c.85,1.57.25,2.23-.87,2.23-.13,0-.32.06-.32.34,0,.25.19.32.32.32h11.53ZM205.11,69.73"/>
</svg>