<?xml version="1.0" encoding="UTF-8"?>
<svg id="Layer_1" xmlns="http://www.w3.org/2000/svg" version="1.1" viewBox="0 0 320.92 75.6">
  <!-- Generator: Adobe Illustrator 30.1.0, SVG Export Plug-In . SVG Version: 2.1.1 Build 136)  -->
  <defs>
    <style>
      .st0 {
        fill: #fff;
      }
    </style>
  </defs>
  <path class="st0" d="M33.58,23.72l14.09,44.81h5.26l1.53-6.98-10.63-33.8C38.64,11.22,29.04,6.43,20.22,6.43s-15.31,4.23-15.31,9.6c0,3.39,2.3,5.7,5.25,5.7s5.31-2.32,5.31-5.25c0-1.34-.45-2.44-1.28-3.66-.95-1.47-.25-3.84,4.42-3.84,8.45,0,12.41,6.46,14.97,14.72h0ZM50.86,68.53h3.2l12.8-33.6h-3.2l-12.8,33.6ZM55.8,26.73l15.55,41.8h5.26l1.53-6.98-13.32-34.82c-.64-1.67.06-2.37,1.16-2.37.12,0,.33-.06.33-.31,0-.27-.21-.33-.33-.33h-13.57c-.12,0-.33.06-.33.33,0,.25.21.31.33.31,1.1,0,2.81.7,3.39,2.37h0ZM87.68,26.79l-13.13,41.74h3.2l13.13-41.74c.52-1.74,2.17-2.44,3.26-2.44.12,0,.31-.06.31-.31,0-.27-.18-.33-.31-.33h-7.81c-.13,0-.33.06-.33.33,0,.25.2.31.33.31,1.07,0,1.86.7,1.34,2.44h0ZM130.25,68.53h2.37c.12,0,.33-.06.33-.31,0-.27-.21-.33-.33-.33-1.1,0-2.31-.77-2.31-2.56v-18.75c0-6.21-4.22-10.7-10.68-10.7s-10.76,4.23-10.76,10.7l2.23-1.1c0-3.07,2.43-6.15,5.58-6.15,3.47,0,4.67,3.2,4.67,6.15v19.85c0,1.8-1.2,2.56-2.29,2.56-.12,0-.33.06-.33.33,0,.25.21.31.33.31h11.2ZM111.04,68.53h2.37c.12,0,.33-.06.33-.31,0-.27-.21-.33-.33-.33-1.09,0-2.31-.77-2.31-2.56V23.39c0-.38-.37-.56-.7-.38-2.23,1.67-5.37,2.63-8.18,2.63h-2.37c-.12,0-.33.06-.33.33,0,.25.21.31.33.31,1.09,0,2.29.77,2.29,2.56v36.49c0,1.8-1.2,2.56-2.29,2.56-.12,0-.33.06-.33.33,0,.25.21.31.33.31h11.19ZM149.84,68.53h2.37c.12,0,.31-.06.31-.31,0-.27-.19-.33-.31-.33-1.09,0-2.31-.77-2.31-2.56v-29.12c0-.39-.39-.58-.7-.39-2.25,1.65-5.37,2.63-8.2,2.63h-2.37c-.12,0-.31.06-.31.33,0,.25.18.31.31.31,1.1,0,2.31.76,2.31,2.56v23.69c0,1.8-1.22,2.56-2.31,2.56-.12,0-.31.06-.31.33,0,.25.18.31.31.31h11.21ZM145.42,32.68c2.56,0,4.48-1.8,4.48-4.48s-1.8-4.48-4.48-4.48-4.48,1.8-4.48,4.48,1.8,4.48,4.48,4.48h0ZM180.63,42.41l-13.2,12.93.72,2.7,13.88-13.71c3.59-3.51,7.89-7.17,8.96-7.17.13,0,.33-.06.33-.33,0-.25-.2-.31-.33-.31h-11.58c-.12,0-.31.06-.31.31,0,.27.18.33.31.33,2.75,0,3.33,3.2,1.22,5.25h0ZM170.45,68.53h2.37c.13,0,.31-.06.31-.31,0-.27-.18-.33-.31-.33-1.09,0-2.31-.77-2.31-2.56V23.39c0-.38-.37-.56-.7-.38-2.23,1.67-5.37,2.63-8.2,2.63h-2.36c-.14,0-.33.06-.33.33,0,.25.18.31.33.31,1.07,0,2.3.77,2.3,2.56v36.49c0,1.8-1.22,2.56-2.3,2.56-.14,0-.33.06-.33.33,0,.25.18.31.33.31h11.19ZM182.04,68.53h10.63c.12,0,.31-.06.31-.31,0-.27-.19-.33-.31-.33-.7,0-1.61-.71-2.37-2.25l-10.18-20.41-6.2,6.34,8.12,16.95ZM223.43,68.53V26.92c0-1.8,1.22-2.56,2.31-2.56.12,0,.31-.06.31-.31,0-.27-.18-.33-.31-.33h-13.57c-.14,0-.33.06-.33.33,0,.25.18.31.33.31,1.07,0,2.29.76,2.29,2.56v38.41c0,1.8-1.22,2.56-2.29,2.56-.14,0-.33.06-.33.33,0,.25.18.31.33.31h11.25ZM221.2,68.53h21.25v-4.88c0-.12-.06-.31-.33-.31-.25,0-.31.18-.31.31,0,1.1-.77,2.32-2.56,2.32h-18.04v2.56ZM266.38,45.79v14.99c0,4.6,3.08,8.38,7.56,8.38,2.96,0,4.94-1.47,6.34-3.84l-.95-1.28c-.58.58-1.22.82-1.86.82-1.15,0-2.13-.95-2.13-3.14v-13.75c0-9.02-7.68-12.04-14.21-12.04-7.56,0-11.25,3.59-11.25,8.14,0,3.39,2.3,5.7,5.25,5.7s5.31-2.31,5.31-5.27c0-1.34-.45-2.41-1.28-3.63-.45-.91-.12-2.37,2.17-2.37,3.2,0,5.06,3.45,5.06,7.29h0ZM257.81,69.17c5.7,0,9.21-3.07,12.8-7.8l-4.23-2.13c0,4.11-1.59,6.09-4.6,6.09-2.75,0-4.03-2.56-4.03-6.09,0-3.76,1.22-6.53,5.06-7.1l5.37-.76v-2.44l-6.15.79c-9.15.95-13.57,4.54-13.57,10.55s3.96,8.9,9.35,8.9h0ZM286.43,28.84v39.69c0,.31.58.45.89.31l8.07-4.27V23.39c0-.38-.39-.56-.71-.38-2.25,1.67-5.39,2.63-8.2,2.63h-2.37c-.12,0-.33.06-.33.33,0,.25.21.31.33.31,1.09,0,2.31.77,2.31,2.56h0ZM301.22,69.17c9.54,0,14.79-6.28,14.79-16.71s-4.23-16.58-12.43-16.58c-7.47,0-12.22,7.93-13.23,28.42,1.01,1.55,5.64,4.87,10.88,4.87h0ZM301.22,65.78c-3.47,0-5.82-4.29-5.82-13.32s2.23-13.26,5.82-13.26c3.84,0,5.49,4.29,5.49,13.26s-1.4,13.32-5.49,13.32h0ZM301.22,65.78"/>
</svg>