<?xml version="1.0" encoding="UTF-8"?>
<svg id="Layer_1" xmlns="http://www.w3.org/2000/svg" version="1.1" viewBox="0 0 434.7 75.6">
  <!-- Generator: Adobe Illustrator 29.8.1, SVG Export Plug-In . SVG Version: 2.1.1 Build 2)  -->
  <defs>
    <style>
      .st0 {
        fill: #fff;
      }
    </style>
  </defs>
  <path class="st0" d="M33.9,21.2l11.97,38.1h4.48l1.3-5.93-9.04-28.74c-4.41-14.04-12.57-18.12-20.07-18.12s-13.01,3.6-13.01,8.16c0,2.88,1.95,4.84,4.46,4.84s4.51-1.97,4.51-4.46c0-1.14-.39-2.07-1.09-3.11-.81-1.25-.21-3.27,3.76-3.27,7.18,0,10.55,5.5,12.73,12.52h0ZM48.59,59.3h2.72l10.89-28.56h-2.72l-10.88,28.56ZM52.79,23.77l13.22,35.53h4.48l1.3-5.93-11.33-29.6c-.54-1.42.06-2.02.99-2.02.1,0,.28-.06.28-.27,0-.23-.18-.28-.28-.28h-11.53c-.11,0-.28.05-.28.28,0,.21.17.27.28.27.93,0,2.38.59,2.88,2.02h0ZM79.9,23.82l-11.17,35.48h2.72l11.16-35.48c.44-1.48,1.85-2.07,2.77-2.07.1,0,.27-.06.27-.27,0-.23-.16-.28-.27-.28h-6.63c-.1,0-.28.05-.28.28,0,.21.18.27.28.27.91,0,1.58.59,1.14,2.07h0ZM116.08,59.3h2.02c.1,0,.28-.05.28-.26,0-.23-.18-.28-.28-.28-.93,0-1.97-.65-1.97-2.18v-15.94c0-5.28-3.58-9.09-9.08-9.09s-9.15,3.6-9.15,9.09l1.9-.93c0-2.62,2.07-5.23,4.74-5.23,2.95,0,3.96,2.72,3.96,5.23v16.87c0,1.53-1.02,2.18-1.95,2.18-.1,0-.28.05-.28.28,0,.21.18.26.28.26h9.52ZM99.75,59.3h2.02c.1,0,.28-.05.28-.26,0-.23-.18-.28-.28-.28-.93,0-1.97-.65-1.97-2.18V20.92c0-.31-.32-.47-.6-.31-1.89,1.42-4.56,2.23-6.95,2.23h-2.02c-.1,0-.28.05-.28.28,0,.21.18.27.28.27.93,0,1.95.65,1.95,2.17v31.02c0,1.53-1.02,2.18-1.95,2.18-.1,0-.28.05-.28.28,0,.21.18.26.28.26h9.52ZM132.74,59.3h2.02c.1,0,.26-.05.26-.26,0-.23-.16-.28-.26-.28-.93,0-1.97-.65-1.97-2.18v-24.75c0-.33-.34-.49-.6-.33-1.91,1.4-4.56,2.23-6.97,2.23h-2.02c-.11,0-.27.05-.27.28,0,.21.16.26.27.26.93,0,1.97.65,1.97,2.18v20.14c0,1.53-1.04,2.18-1.97,2.18-.11,0-.27.05-.27.28,0,.21.16.26.27.26h9.53ZM128.98,28.82c2.18,0,3.81-1.53,3.81-3.81s-1.53-3.81-3.81-3.81-3.81,1.53-3.81,3.81,1.53,3.81,3.81,3.81h0ZM158.92,37.09l-11.22,10.99.61,2.3,11.8-11.66c3.06-2.98,6.71-6.09,7.62-6.09.1,0,.28-.05.28-.28,0-.21-.18-.26-.28-.26h-9.85c-.11,0-.27.05-.27.26,0,.23.16.28.27.28,2.33,0,2.82,2.72,1.03,4.46h0ZM150.26,59.3h2.02c.1,0,.26-.05.26-.26,0-.23-.16-.28-.26-.28-.93,0-1.97-.65-1.97-2.18V20.92c0-.31-.32-.47-.6-.31-1.89,1.42-4.56,2.23-6.97,2.23h-2c-.12,0-.29.05-.29.28,0,.21.16.27.29.27.91,0,1.95.65,1.95,2.17v31.02c0,1.53-1.04,2.18-1.95,2.18-.12,0-.29.05-.29.28,0,.21.16.26.29.26h9.51ZM160.11,59.3h9.04c.1,0,.26-.05.26-.26,0-.23-.16-.28-.26-.28-.6,0-1.37-.6-2.02-1.91l-8.65-17.34-5.27,5.39,6.9,14.41ZM205.24,59.84c5.05,0,9.15-2.28,11.92-6.53l-1.14-1.04c-1.97,2.28-4.84,3.42-7.73,3.42-8.06,0-12.26-4.95-12.26-15.5,0-11.38,3.32-17.36,9.53-17.36,2.72,0,3.04,2.13,2.28,3.27-.7,1.04-1.08,1.97-1.08,3.11,0,2.49,2.02,4.46,4.51,4.46s4.46-1.97,4.46-4.85c0-4.56-3.32-8.16-9.8-8.16-11.25,0-18.06,7.18-18.06,19.54s6.42,19.65,17.36,19.65h0ZM236.41,59.84c8.06,0,13.39-5.34,13.39-14.2s-4.95-14.1-13.39-14.1-13.48,5.16-13.48,14.1,4.95,14.2,13.48,14.2h0ZM236.41,57.66c-3.81,0-5.86-3.86-5.86-12.02s1.89-11.98,5.86-11.98c3.76,0,5.77,3.92,5.77,11.98s-1.89,12.02-5.77,12.02h0ZM264.56,59.3h2.02c.1,0,.26-.05.26-.26,0-.23-.16-.28-.26-.28-.93,0-1.97-.65-1.97-2.18v-24.75c0-.33-.32-.49-.6-.33-1.84,1.35-4.3,2.23-6.53,2.23h-2.02c-.1,0-.26.05-.26.28,0,.21.16.26.26.26.93,0,1.97.65,1.97,2.18v20.14c0,1.53-1.04,2.18-1.97,2.18-.1,0-.26.05-.26.28,0,.21.16.26.26.26h9.1ZM278.94,59.3h2c.1,0,.28-.05.28-.26,0-.23-.18-.28-.28-.28-.91,0-1.95-.65-1.95-2.18v-17.96c0-4.95-2.9-7.07-7.36-7.07-5.16,0-8.92,3.6-8.92,9.09l1.9-.93c0-2.62,1.74-5.23,4.25-5.23,2.02,0,2.93,1.37,2.93,4.69v17.42c0,1.53-1.02,2.18-1.95,2.18-.1,0-.28.05-.28.28,0,.21.18.26.28.26h9.1ZM293.19,59.3h2.02c.1,0,.26-.05.26-.26,0-.23-.16-.28-.26-.28-.93,0-1.97-.65-1.97-2.18v-17.96c0-4.95-2.88-7.07-7.36-7.07-5.16,0-8.92,3.6-8.92,9.09l1.9-.93c0-2.62,1.76-5.23,4.25-5.23,2.02,0,2.95,1.37,2.95,4.69v17.42c0,1.53-1.03,2.18-1.97,2.18-.1,0-.26.05-.26.28,0,.21.16.26.26.26h9.1ZM309.84,67.46h2.02c.1,0,.28-.05.28-.27,0-.23-.18-.28-.28-.28-.93,0-1.95-.65-1.95-2.17V31.82c0-.33-.33-.49-.61-.33-1.89,1.4-4.56,2.23-6.95,2.23h-2.02c-.1,0-.28.05-.28.28,0,.21.18.26.28.26.93,0,1.97.65,1.97,2.18v28.3c0,1.53-1.03,2.17-1.97,2.17-.1,0-.28.05-.28.28,0,.21.18.27.28.27h9.52ZM314.86,59.84c8.11,0,12.57-5.34,12.57-14.2s-3.6-14.1-10.57-14.1c-6.35,0-10.39,6.74-11.25,24.16.86,1.32,4.77,4.15,9.25,4.15h0ZM314.86,56.96c-2.95,0-4.95-3.65-4.95-11.32s1.9-11.27,4.95-11.27c3.27,0,4.67,3.65,4.67,11.27s-1.19,11.32-4.67,11.32h0ZM348.86,39.97v12.75c0,3.92,2.62,7.13,6.42,7.13,2.51,0,4.2-1.25,5.39-3.27l-.83-1.09c-.49.49-1.03.7-1.58.7-.96,0-1.79-.81-1.79-2.67v-11.69c0-7.67-6.53-10.23-12.08-10.23-6.43,0-9.59,3.05-9.59,6.91,0,2.88,1.97,4.85,4.48,4.85s4.51-1.97,4.51-4.47c0-1.14-.39-2.06-1.09-3.09-.39-.77-.1-2.02,1.85-2.02,2.72,0,4.3,2.93,4.3,6.2h0ZM341.58,59.84c4.85,0,7.83-2.62,10.89-6.63l-3.6-1.81c0,3.49-1.35,5.18-3.91,5.18-2.34,0-3.42-2.18-3.42-5.18,0-3.2,1.01-5.55,4.3-6.04l4.56-.65v-2.07l-5.23.67c-7.78.81-11.53,3.87-11.53,8.97s3.37,7.57,7.95,7.57h0ZM389.9,59.3h2.02c.1,0,.28-.05.28-.26,0-.23-.18-.28-.28-.28-.91,0-1.95-.65-1.95-2.18v-16.87c0-5.78-3.49-8.16-8.88-8.16s-9.46,3.6-9.46,9.09l1.89-.93c0-2.62,1.97-5.23,4.79-5.23s4.04,2.12,4.04,5.77v16.33c0,1.53-1.04,2.18-1.97,2.18-.1,0-.26.05-.26.28,0,.21.16.26.26.26h9.52ZM373.46,59.3h2.02c.1,0,.27-.05.27-.26,0-.23-.16-.28-.27-.28-.93,0-1.97-.65-1.97-2.18v-24.75c0-.33-.31-.49-.59-.33-1.9,1.4-4.56,2.23-6.95,2.23h-2.02c-.1,0-.28.05-.28.28,0,.21.18.26.28.26.93,0,1.95.65,1.95,2.18v20.14c0,1.53-1.02,2.18-1.95,2.18-.1,0-.28.05-.28.28,0,.21.18.26.28.26h9.51ZM405.08,69.1c3.88,0,6.32-2.88,7.8-7.57l9.2-26.88c.49-1.42,1.89-2.02,2.83-2.02.1,0,.26-.05.26-.28,0-.21-.16-.26-.26-.26h-6.64c-.12,0-.28.05-.28.26,0,.23.16.28.28.28.91,0,1.58.6,1.09,2.02l-9.8,28.56c-.54,1.69-1.91,4.09-4.48,4.09-.8,0-1.19-.67-1.19-1.26,0-.65.98-2,.98-2.83,0-1.69-1.35-3.04-3.11-3.04s-3.04,1.35-3.04,3.26c0,3.19,2.07,5.65,6.35,5.65h0ZM399.43,34.6l11.48,27.42,1.74-2.72,1.97-5.93-7.02-18.72c-.49-1.42.1-2.02,1.03-2.02.11,0,.27-.05.27-.28,0-.21-.16-.26-.27-.26h-12.18c-.12,0-.28.05-.28.26,0,.23.16.28.28.28.91,0,2.39.55,2.99,1.97h0ZM399.43,34.6"/>
</svg>